<svg width="77" height="27" viewBox="0 0 77 27" fill="none" xmlns="http://www.w3.org/2000/svg" style="margin-bottom:35px">
    <path d="M0 13.7678C9.35646 8.99631 10.9871 16.7792 19.1012 19.6734C20.227 20.0254 21.3917 20.26 22.5953 20.4165L22.7894 19.2041H22.7506C13.2388 15.6842 13.5882 5.00707 3.02823 11.6167L0 13.7678Z" fill="#00B9FC"></path>
    <path d="M9.58936 1.56543C16.4999 1.91742 17.0435 4.73336 19.6835 10.2479C20.8093 12.5554 22.0129 14.3936 23.4882 15.7624C23.9929 16.2318 24.5364 16.7011 25.1188 17.0922V15.0584C25.1188 15.0584 24.847 14.6673 24.6917 14.4327C21.4693 9.30925 22.7505 3.59916 18.1693 1.64365C16.4223 0.900557 11.3364 0.783226 9.58936 1.56543Z" fill="#00B9FC"></path>
    <path d="M5.31885 7.47118C8.65767 7.11919 10.0165 6.84542 12.5012 8.68359C14.4812 10.1698 16.6165 13.6115 18.8294 15.6452C20.0718 16.7403 21.4306 17.6789 22.9059 18.422L22.9447 18.1483C24.0318 18.1874 24.6141 18.2265 24.8082 17.9918C24.8082 17.9918 20.2659 13.6897 18.3635 10.2089C15.1412 4.30325 11.88 4.8508 6.25061 6.96275C6.09532 7.00186 5.94002 7.08008 5.78473 7.1583C5.74591 7.1583 5.31885 7.47118 5.31885 7.47118Z" fill="#00B9FC"></path>
    <path d="M32.1846 14.0024C33.1552 14.2762 34.0869 14.8237 34.0481 15.9579C34.0093 17.7961 31.8352 18.0307 30.4375 18.109C29.8163 18.1481 29.1563 18.1481 28.5352 18.109V13.7677C29.7775 13.6895 30.981 13.7677 32.1846 14.0024Z" fill="#00B9FC"></path>
    <path d="M28.574 13.8069C29.7775 13.6896 31.0199 13.7678 32.1846 14.0024C33.1552 14.2762 34.0869 14.8238 34.0481 15.958C34.0093 17.7961 31.8352 18.0308 30.4375 18.109C29.8163 18.1481 29.1563 18.1481 28.5352 18.109L28.574 13.8069Z" fill="#00B9FC"></path>
    <path d="M28.574 7.823C29.5834 7.74478 30.6316 7.823 31.641 8.01856C33.7375 8.64432 33.2716 10.5216 32.6504 10.9909C32.3399 11.2647 31.9516 11.4603 31.5634 11.5385" fill="#00B9FC"></path>
    <path d="M19.2563 0.822342C19.3728 0.900562 19.5281 1.01789 19.7222 1.13522C20.1493 1.4481 20.5375 1.8001 20.8481 2.1912C21.3528 2.81696 21.8187 3.52094 22.1293 4.26404C22.3234 4.69425 22.5175 5.12446 22.6728 5.55467H26.4775V2.30853H28.4963V5.47645H30.0493V2.30853H31.0587C27.6034 -0.116303 23.1775 -0.663845 19.2563 0.822342Z" fill="#00B9FC"></path>
    <path d="M23.4106 7.66663C23.5271 8.05773 23.6048 8.37061 23.7212 8.7226C23.9153 9.42658 24.4977 11.6559 25.1189 12.8292V8.95726C25.1577 8.68349 25.0801 8.40972 24.9636 8.13595C24.8083 7.90129 24.5365 7.74485 24.2648 7.70574C23.9542 7.66663 23.6824 7.66663 23.4106 7.66663Z" fill="#00B9FC"></path>
    <path d="M32.0681 3.12988V5.55471C32.6505 5.63293 33.2328 5.71115 33.8152 5.82849C34.0869 5.90671 34.3587 5.98493 34.6305 6.10226C33.9316 5.00717 33.0775 3.99031 32.0681 3.12988Z" fill="#00B9FC"></path>
    <path d="M36.6494 12.8683C36.4941 12.79 36.2999 12.6727 36.1058 12.5554C35.8341 12.3989 35.5235 12.2816 35.2129 12.2425C35.4847 12.0861 35.7564 11.8905 35.9894 11.6559C36.1835 11.4603 36.3776 11.2648 36.4941 11.0301C36.5329 11.343 36.5717 11.6559 36.6105 12.0078C36.6494 12.3598 36.6494 12.5945 36.6494 12.8683Z" fill="#00B9FC"></path>
    <path d="M28.574 11.8123V7.86219C28.9234 7.82308 30.8646 7.78397 31.6799 8.09686C32.8834 8.52707 33.1551 9.19194 33.1551 9.77859C33.1551 10.2088 33.0775 11.1474 31.6799 11.6168C30.5928 11.8905 29.001 11.8123 28.574 11.8123Z" fill="#00B9FC"></path>
    <path d="M32.0681 22.9978C32.534 22.6067 32.9611 22.2156 33.3493 21.7463C33.7764 21.2379 34.1646 20.7294 34.5528 20.1819C34.2422 20.2601 33.9316 20.2992 33.6211 20.3774C33.1163 20.4557 32.6116 20.4948 32.1069 20.4948L32.0681 22.9978Z" fill="#00B9FC"></path>
    <path d="M30.9811 23.8192H30.0882V20.925L28.5353 21.2379V23.8192H26.5553V21.5508C25.0023 21.7463 23.4106 21.7463 21.8576 21.5117C18.8682 21.0423 16.7329 19.869 15.1411 18.9304C13.7435 18.1482 12.4623 17.2095 11.22 16.1536C12.5788 21.6681 17.3541 25.6573 22.9835 26.0484C25.7788 26.244 28.6129 25.4618 30.9811 23.8192Z" fill="#00B9FC"></path>
    <path d="M44 19.0488V5H49.573C50.6444 5 51.5571 5.20351 52.3112 5.61052C53.0653 6.01296 53.6401 6.57317 54.0355 7.29116C54.4356 8.00457 54.6356 8.82774 54.6356 9.76067C54.6356 10.6936 54.4333 11.5168 54.0286 12.2302C53.624 12.9436 53.0377 13.4992 52.2698 13.8971C51.5065 14.295 50.5823 14.4939 49.4971 14.4939H45.945V12.1136H49.0143C49.5891 12.1136 50.0627 12.0152 50.4352 11.8186C50.8122 11.6174 51.0927 11.3407 51.2766 10.9886C51.4651 10.6319 51.5594 10.2226 51.5594 9.76067C51.5594 9.29421 51.4651 8.88719 51.2766 8.53963C51.0927 8.1875 50.8122 7.9154 50.4352 7.72332C50.0581 7.52668 49.5799 7.42835 49.0005 7.42835H46.9865V19.0488H44Z" fill="#00B9FC"></path>
    <path d="M59.2568 19.2477C58.5808 19.2477 57.9785 19.1311 57.4497 18.8979C56.9209 18.6601 56.5025 18.3102 56.1944 17.8483C55.8909 17.3819 55.7392 16.8011 55.7392 16.1059C55.7392 15.5206 55.8472 15.029 56.0633 14.6311C56.2794 14.2332 56.5737 13.9131 56.9462 13.6707C57.3186 13.4284 57.7417 13.2454 58.2153 13.122C58.6935 12.9985 59.1947 12.9116 59.7189 12.8613C60.335 12.7973 60.8316 12.7378 61.2087 12.6829C61.5857 12.6235 61.8593 12.5366 62.0295 12.4223C62.1996 12.3079 62.2847 12.1387 62.2847 11.9146V11.8735C62.2847 11.439 62.1467 11.1029 61.8708 10.8651C61.5995 10.6273 61.2133 10.5084 60.7121 10.5084C60.1833 10.5084 59.7626 10.625 59.4499 10.8582C59.1372 11.0869 58.9303 11.375 58.8291 11.7226L56.1116 11.503C56.2496 10.8628 56.5208 10.3095 56.9255 9.84299C57.3301 9.37195 57.852 9.01067 58.4912 8.75915C59.1349 8.50305 59.8798 8.375 60.7259 8.375C61.3145 8.375 61.8777 8.4436 62.4157 8.58079C62.9583 8.71799 63.4388 8.93064 63.8572 9.21875C64.2803 9.50686 64.6136 9.87729 64.8574 10.33C65.1011 10.7782 65.2229 11.3155 65.2229 11.9421V19.0488H62.4364V17.5877H62.3536C62.1835 17.9169 61.9559 18.2073 61.6708 18.4588C61.3857 18.7058 61.0432 18.9002 60.6431 19.0419C60.2431 19.1791 59.781 19.2477 59.2568 19.2477ZM60.0982 17.2309C60.5305 17.2309 60.9121 17.1463 61.2432 16.9771C61.5743 16.8034 61.834 16.5701 62.0226 16.2774C62.2111 15.9848 62.3054 15.6532 62.3054 15.2828V14.1646C62.2134 14.2241 62.0869 14.279 61.926 14.3293C61.7697 14.375 61.5926 14.4184 61.3949 14.4596C61.1972 14.4962 60.9995 14.5305 60.8018 14.5625C60.604 14.5899 60.4247 14.6151 60.2638 14.638C59.9189 14.6883 59.6177 14.7683 59.3602 14.878C59.1027 14.9878 58.9027 15.1364 58.7602 15.3239C58.6176 15.5069 58.5463 15.7355 58.5463 16.0099C58.5463 16.4078 58.6912 16.7119 58.9809 16.9223C59.2752 17.128 59.6476 17.2309 60.0982 17.2309Z" fill="#00B9FC"></path>
    <path d="M68.9371 23C68.5646 23 68.2152 22.9703 67.8887 22.9108C67.5668 22.8559 67.3001 22.7851 67.0886 22.6982L67.7508 20.5168C68.0956 20.622 68.406 20.6791 68.6819 20.6883C68.9624 20.6974 69.2038 20.6334 69.4061 20.4962C69.613 20.359 69.7809 20.1258 69.9096 19.7965L70.082 19.3506L66.2816 8.5122H69.3716L71.5649 16.25H71.6753L73.8893 8.5122H77L72.8823 20.1875C72.6846 20.7546 72.4156 21.2485 72.0753 21.6692C71.7397 22.0945 71.3143 22.4215 70.7994 22.6502C70.2844 22.8834 69.6636 23 68.9371 23Z" fill="#00B9FC"></path>
</svg>